<mxfile host="app.diagrams.net" modified="2021-10-05T13:09:43.887Z" agent="5.0 (Windows NT 10.0; Win64; x64) AppleWebKit/537.36 (KHTML, like Gecko) Chrome/94.0.4606.61 Safari/537.36" etag="OoBWEu1SQDo0Pvfrigz4" version="15.4.2" type="github">
  <diagram id="aagkKt7PL0-A1XKuNwsL" name="Page-1">
    <mxGraphModel dx="782" dy="379" grid="1" gridSize="10" guides="1" tooltips="1" connect="1" arrows="1" fold="1" page="1" pageScale="1" pageWidth="850" pageHeight="1100" math="0" shadow="0">
      <root>
        <mxCell id="0" />
        <mxCell id="1" parent="0" />
        <mxCell id="AwdPxR8ZreaOL-qrmccU-13" style="edgeStyle=orthogonalEdgeStyle;rounded=0;orthogonalLoop=1;jettySize=auto;html=1;exitX=0.5;exitY=0;exitDx=0;exitDy=0;entryX=0;entryY=0.5;entryDx=0;entryDy=0;" edge="1" parent="1" source="AwdPxR8ZreaOL-qrmccU-6" target="AwdPxR8ZreaOL-qrmccU-7">
          <mxGeometry relative="1" as="geometry" />
        </mxCell>
        <mxCell id="AwdPxR8ZreaOL-qrmccU-14" style="edgeStyle=orthogonalEdgeStyle;rounded=0;orthogonalLoop=1;jettySize=auto;html=1;exitX=0.5;exitY=1;exitDx=0;exitDy=0;entryX=0;entryY=1;entryDx=0;entryDy=0;" edge="1" parent="1" source="AwdPxR8ZreaOL-qrmccU-6" target="AwdPxR8ZreaOL-qrmccU-8">
          <mxGeometry relative="1" as="geometry" />
        </mxCell>
        <mxCell id="AwdPxR8ZreaOL-qrmccU-15" style="edgeStyle=orthogonalEdgeStyle;rounded=0;orthogonalLoop=1;jettySize=auto;html=1;exitX=0.25;exitY=1;exitDx=0;exitDy=0;entryX=0.75;entryY=1;entryDx=0;entryDy=0;" edge="1" parent="1" source="AwdPxR8ZreaOL-qrmccU-6" target="AwdPxR8ZreaOL-qrmccU-9">
          <mxGeometry relative="1" as="geometry" />
        </mxCell>
        <mxCell id="AwdPxR8ZreaOL-qrmccU-16" style="edgeStyle=orthogonalEdgeStyle;rounded=0;orthogonalLoop=1;jettySize=auto;html=1;exitX=0.25;exitY=0;exitDx=0;exitDy=0;entryX=0;entryY=0.25;entryDx=0;entryDy=0;" edge="1" parent="1" source="AwdPxR8ZreaOL-qrmccU-6" target="AwdPxR8ZreaOL-qrmccU-10">
          <mxGeometry relative="1" as="geometry" />
        </mxCell>
        <mxCell id="AwdPxR8ZreaOL-qrmccU-6" value="Launch" style="text;html=1;strokeColor=none;fillColor=none;align=center;verticalAlign=middle;whiteSpace=wrap;rounded=0;" vertex="1" parent="1">
          <mxGeometry x="30" y="140" width="60" height="30" as="geometry" />
        </mxCell>
        <mxCell id="AwdPxR8ZreaOL-qrmccU-7" value="start" style="text;html=1;strokeColor=none;fillColor=none;align=center;verticalAlign=middle;whiteSpace=wrap;rounded=0;" vertex="1" parent="1">
          <mxGeometry x="110" y="100" width="60" height="30" as="geometry" />
        </mxCell>
        <mxCell id="AwdPxR8ZreaOL-qrmccU-20" style="edgeStyle=orthogonalEdgeStyle;rounded=0;orthogonalLoop=1;jettySize=auto;html=1;exitX=1;exitY=0.25;exitDx=0;exitDy=0;" edge="1" parent="1" source="AwdPxR8ZreaOL-qrmccU-8">
          <mxGeometry relative="1" as="geometry">
            <mxPoint x="280" y="190" as="targetPoint" />
          </mxGeometry>
        </mxCell>
        <mxCell id="AwdPxR8ZreaOL-qrmccU-28" style="edgeStyle=orthogonalEdgeStyle;rounded=0;orthogonalLoop=1;jettySize=auto;html=1;exitX=0.75;exitY=0;exitDx=0;exitDy=0;" edge="1" parent="1" source="AwdPxR8ZreaOL-qrmccU-8">
          <mxGeometry relative="1" as="geometry">
            <mxPoint x="220" y="120" as="targetPoint" />
          </mxGeometry>
        </mxCell>
        <mxCell id="AwdPxR8ZreaOL-qrmccU-8" value="makeGame" style="text;html=1;strokeColor=none;fillColor=none;align=center;verticalAlign=middle;whiteSpace=wrap;rounded=0;" vertex="1" parent="1">
          <mxGeometry x="110" y="170" width="60" height="30" as="geometry" />
        </mxCell>
        <mxCell id="AwdPxR8ZreaOL-qrmccU-9" value="getGame" style="text;html=1;strokeColor=none;fillColor=none;align=center;verticalAlign=middle;whiteSpace=wrap;rounded=0;" vertex="1" parent="1">
          <mxGeometry x="110" y="250" width="60" height="30" as="geometry" />
        </mxCell>
        <mxCell id="AwdPxR8ZreaOL-qrmccU-10" value="build" style="text;html=1;strokeColor=none;fillColor=none;align=center;verticalAlign=middle;whiteSpace=wrap;rounded=0;" vertex="1" parent="1">
          <mxGeometry x="60" y="50" width="60" height="30" as="geometry" />
        </mxCell>
        <mxCell id="AwdPxR8ZreaOL-qrmccU-24" style="edgeStyle=orthogonalEdgeStyle;rounded=0;orthogonalLoop=1;jettySize=auto;html=1;exitX=1;exitY=0.5;exitDx=0;exitDy=0;entryX=0;entryY=0.5;entryDx=0;entryDy=0;" edge="1" parent="1" source="AwdPxR8ZreaOL-qrmccU-19" target="AwdPxR8ZreaOL-qrmccU-21">
          <mxGeometry relative="1" as="geometry" />
        </mxCell>
        <mxCell id="AwdPxR8ZreaOL-qrmccU-19" value="makeLevel" style="text;html=1;strokeColor=none;fillColor=none;align=center;verticalAlign=middle;whiteSpace=wrap;rounded=0;" vertex="1" parent="1">
          <mxGeometry x="300" y="170" width="60" height="30" as="geometry" />
        </mxCell>
        <mxCell id="AwdPxR8ZreaOL-qrmccU-25" style="edgeStyle=orthogonalEdgeStyle;rounded=0;orthogonalLoop=1;jettySize=auto;html=1;exitX=1;exitY=0.5;exitDx=0;exitDy=0;entryX=0;entryY=0.5;entryDx=0;entryDy=0;" edge="1" parent="1" source="AwdPxR8ZreaOL-qrmccU-21" target="AwdPxR8ZreaOL-qrmccU-22">
          <mxGeometry relative="1" as="geometry" />
        </mxCell>
        <mxCell id="AwdPxR8ZreaOL-qrmccU-21" value="parseMap" style="text;html=1;strokeColor=none;fillColor=none;align=center;verticalAlign=middle;whiteSpace=wrap;rounded=0;" vertex="1" parent="1">
          <mxGeometry x="425" y="170" width="60" height="30" as="geometry" />
        </mxCell>
        <mxCell id="AwdPxR8ZreaOL-qrmccU-26" style="edgeStyle=orthogonalEdgeStyle;rounded=0;orthogonalLoop=1;jettySize=auto;html=1;exitX=1;exitY=0.5;exitDx=0;exitDy=0;entryX=0;entryY=0.5;entryDx=0;entryDy=0;" edge="1" parent="1" source="AwdPxR8ZreaOL-qrmccU-22" target="AwdPxR8ZreaOL-qrmccU-23">
          <mxGeometry relative="1" as="geometry" />
        </mxCell>
        <mxCell id="AwdPxR8ZreaOL-qrmccU-22" value="createBoard" style="text;html=1;strokeColor=none;fillColor=none;align=center;verticalAlign=middle;whiteSpace=wrap;rounded=0;" vertex="1" parent="1">
          <mxGeometry x="560" y="170" width="60" height="30" as="geometry" />
        </mxCell>
        <mxCell id="AwdPxR8ZreaOL-qrmccU-23" value="createLevel" style="text;html=1;strokeColor=none;fillColor=none;align=center;verticalAlign=middle;whiteSpace=wrap;rounded=0;" vertex="1" parent="1">
          <mxGeometry x="670" y="170" width="60" height="30" as="geometry" />
        </mxCell>
        <mxCell id="AwdPxR8ZreaOL-qrmccU-31" style="edgeStyle=orthogonalEdgeStyle;rounded=0;orthogonalLoop=1;jettySize=auto;html=1;exitX=0.5;exitY=0;exitDx=0;exitDy=0;entryX=0;entryY=0.75;entryDx=0;entryDy=0;" edge="1" parent="1" source="AwdPxR8ZreaOL-qrmccU-27" target="AwdPxR8ZreaOL-qrmccU-29">
          <mxGeometry relative="1" as="geometry" />
        </mxCell>
        <mxCell id="AwdPxR8ZreaOL-qrmccU-27" value="createSinglePlayerGame" style="text;html=1;strokeColor=none;fillColor=none;align=center;verticalAlign=middle;whiteSpace=wrap;rounded=0;" vertex="1" parent="1">
          <mxGeometry x="240" y="100" width="60" height="30" as="geometry" />
        </mxCell>
        <mxCell id="AwdPxR8ZreaOL-qrmccU-32" style="edgeStyle=orthogonalEdgeStyle;rounded=0;orthogonalLoop=1;jettySize=auto;html=1;exitX=1;exitY=0;exitDx=0;exitDy=0;" edge="1" parent="1" source="AwdPxR8ZreaOL-qrmccU-29">
          <mxGeometry relative="1" as="geometry">
            <mxPoint x="480" y="60" as="targetPoint" />
          </mxGeometry>
        </mxCell>
        <mxCell id="AwdPxR8ZreaOL-qrmccU-29" value="createPacman" style="text;html=1;strokeColor=none;fillColor=none;align=center;verticalAlign=middle;whiteSpace=wrap;rounded=0;" vertex="1" parent="1">
          <mxGeometry x="360" y="50" width="60" height="30" as="geometry" />
        </mxCell>
        <mxCell id="AwdPxR8ZreaOL-qrmccU-30" value="getPacmanSprites" style="text;html=1;strokeColor=none;fillColor=none;align=center;verticalAlign=middle;whiteSpace=wrap;rounded=0;" vertex="1" parent="1">
          <mxGeometry x="500" y="40" width="60" height="30" as="geometry" />
        </mxCell>
        <mxCell id="AwdPxR8ZreaOL-qrmccU-37" style="edgeStyle=orthogonalEdgeStyle;rounded=0;orthogonalLoop=1;jettySize=auto;html=1;exitX=0.5;exitY=0;exitDx=0;exitDy=0;entryX=0;entryY=0.25;entryDx=0;entryDy=0;" edge="1" parent="1" source="AwdPxR8ZreaOL-qrmccU-33" target="AwdPxR8ZreaOL-qrmccU-34">
          <mxGeometry relative="1" as="geometry" />
        </mxCell>
        <mxCell id="AwdPxR8ZreaOL-qrmccU-38" style="edgeStyle=orthogonalEdgeStyle;rounded=0;orthogonalLoop=1;jettySize=auto;html=1;exitX=0.5;exitY=1;exitDx=0;exitDy=0;" edge="1" parent="1" source="AwdPxR8ZreaOL-qrmccU-33">
          <mxGeometry relative="1" as="geometry">
            <mxPoint x="200" y="460" as="targetPoint" />
          </mxGeometry>
        </mxCell>
        <mxCell id="AwdPxR8ZreaOL-qrmccU-33" value="PacManUI" style="text;html=1;strokeColor=none;fillColor=none;align=center;verticalAlign=middle;whiteSpace=wrap;rounded=0;" vertex="1" parent="1">
          <mxGeometry x="130" y="410" width="60" height="30" as="geometry" />
        </mxCell>
        <mxCell id="AwdPxR8ZreaOL-qrmccU-34" value="getPlayers" style="text;html=1;strokeColor=none;fillColor=none;align=center;verticalAlign=middle;whiteSpace=wrap;rounded=0;" vertex="1" parent="1">
          <mxGeometry x="200" y="370" width="60" height="30" as="geometry" />
        </mxCell>
        <mxCell id="AwdPxR8ZreaOL-qrmccU-36" value="setScoreFormatter" style="text;html=1;strokeColor=none;fillColor=none;align=center;verticalAlign=middle;whiteSpace=wrap;rounded=0;" vertex="1" parent="1">
          <mxGeometry x="220" y="440" width="60" height="30" as="geometry" />
        </mxCell>
      </root>
    </mxGraphModel>
  </diagram>
</mxfile>
